<svg width="24" height="33" viewBox="0 0 24 33" fill="none" xmlns="http://www.w3.org/2000/svg">
<path d="M12.0002 9.89921e-10C8.88541 0.00260157 5.8982 1.23769 3.69102 3.4355C1.48384 5.6333 0.236065 8.61524 0.220215 11.73C0.220215 16.4 2.84022 20.31 4.76022 23.16L5.11021 23.68C7.02049 26.4486 9.06979 29.1187 11.2502 31.68L12.0102 32.57L12.7702 31.68C14.9504 29.1185 16.9996 26.4484 18.9102 23.68L19.2602 23.15C21.1702 20.3 23.7902 16.4 23.7902 11.73C23.7744 8.61351 22.5252 5.63006 20.3159 3.43197C18.1065 1.23388 15.1167 -4.03561e-05 12.0002 9.89921e-10ZM12.0002 17C10.7028 17 9.43446 16.6153 8.35567 15.8944C7.27689 15.1736 6.43608 14.1491 5.93957 12.9504C5.44305 11.7517 5.31314 10.4327 5.56626 9.16021C5.81938 7.88769 6.44416 6.71881 7.36159 5.80138C8.27903 4.88395 9.44791 4.25917 10.7204 4.00605C11.9929 3.75293 13.3119 3.88284 14.5106 4.37935C15.7093 4.87586 16.7338 5.71667 17.4547 6.79546C18.1755 7.87425 18.5602 9.14255 18.5602 10.44C18.5602 12.1798 17.8691 13.8484 16.6388 15.0786C15.4086 16.3089 13.74 17 12.0002 17Z" fill="#3669C9"/>
</svg>
